<svg xmlns="http://www.w3.org/2000/svg" xmlns:xlink="http://www.w3.org/1999/xlink" width="1920" height="867" viewBox="0 0 1920 867">
  <defs>
    <clipPath id="clip-path">
      <rect id="Rectangle_54" data-name="Rectangle 54" width="1920" height="867" transform="translate(0)" fill="none"/>
    </clipPath>
    <clipPath id="clip-path-2">
      <rect id="Rectangle_82" data-name="Rectangle 82" width="322.969" height="171.312" fill="none"/>
    </clipPath>
  </defs>
  <g id="Group_18433" data-name="Group 18433" transform="translate(0 -4555)">
    <g id="Group_14" data-name="Group 14" transform="translate(-32.86 4555)">
      <g id="Group_13" data-name="Group 13" transform="translate(32.86)" clip-path="url(#clip-path)">
        <path id="Path_172" data-name="Path 172" d="M31.669,390.048C79.581,324.562,144.332,272,218.589,239.291c88.162-38.838,172.465-41.014,244.133-2.965,95.663,50.787,138.023,168.9,219.189,240.618,12.464,11.012,26.487,21.561,42.947,23.952,15.486,2.251,30.954-3.016,45.824-7.889,43.739-14.332,92.773-25.6,134.6-6.39,21.182,9.729,38.269,26.4,54.685,42.947q96.834,97.614,183.779,204.415c-39.083,16.616-82.41,19.531-124.792,22.229L801.559,770.052C696.017,776.773,590.3,783.5,484.584,780.476,345.786,776.508,206.8,755.762,68.6,769.189c-5.217.507-11.28.76-14.8-3.124-1.711-1.889-2.464-4.431-3.16-6.883A1475.276,1475.276,0,0,1,3.726,520.252C1.763,502.674.18,484.44,5.805,467.671,12.977,446.3,31.662,426.5,26.119,404.648c-1.377-5.426-4.264-10.764-3.366-16.288s8.65-9.871,12.061-5.434" transform="translate(-50.179 116.947)" fill="#add1c0"/>
        <path id="Path_173" data-name="Path 173" d="M21.341,416.76c27-34.111,60.44-62.181,94.684-88.721,34.666-26.867,70.326-52.838,109.05-73.609,39.035-20.937,81.518-36.443,125.812-40.819A230.955,230.955,0,0,1,474.75,235.2C553,272.96,605.836,344.568,655.1,413.409c23.456,32.782,46.852,70.931,85.235,87.807,17.358,7.632,36.617,10.132,54.975,4.668,19.161-5.7,35.462-17.9,54.122-24.793,42.018-15.514,85.553,5.486,117.129,33.014,16.268,14.184,30.747,30.263,45.377,46.086q24.434,26.428,48.87,52.855,12.217,13.211,24.434,26.426c2.048,2.216,5.351-1.1,3.308-3.308-32.483-35.132-64.321-71.024-97.7-105.311-28.345-29.12-62.433-56.271-104.543-59.472-20.243-1.539-38.45,4.28-56.263,13.409-18.935,9.7-37.511,20.657-59.576,19.333-45.813-2.748-75.571-43.2-99.982-77.22C620.916,357.821,570.912,284.7,495.77,241.073c-35.8-20.783-75.7-32.964-117.231-33.392-43.368-.445-86.255,10.586-125.755,28-40.685,17.935-78.009,42.541-113.625,68.956-34.917,25.894-69.814,52.745-99.843,84.313q-11.195,11.766-21.284,24.5c-1.851,2.336,1.44,5.67,3.308,3.308" transform="translate(-41.465 116.234)" fill="#2a8699"/>
        <path id="Path_174" data-name="Path 174" d="M256.232,230.5a77.945,77.945,0,0,1,25.133,40.562,75.875,75.875,0,0,1-4.1,48.094,79.627,79.627,0,0,1-30.13,35.107c-12.406,8.079-26.276,13.5-40.039,18.771-13.917,5.334-28.033,10.544-40.911,18.144a98.558,98.558,0,0,0-17.771,13.2,104.374,104.374,0,0,0-15.255,18.745c-9,13.746-15.717,28.83-24.69,42.591a110.883,110.883,0,0,1-33.3,33.12,114.76,114.76,0,0,1-43.906,16.6,120.4,120.4,0,0,1-23.315,1c-3.065-.119-7.009.652-7.833,4.144-.721,3.057,2.333,4.759,4.982,4.035,2.781-.763,3.519-3.9.986-5.52s-4.893,2.421-2.361,4.041l.019-2.964a.154.154,0,0,1,.167-.067c.147.02-.324-.154-.094.047.385.335.766,1.34.941,1.408s1.6-.438,1.987-.457a26.278,26.278,0,0,1,2.645.094,107.126,107.126,0,0,0,11.434-.009A115.558,115.558,0,0,0,43.4,517.7a118.505,118.505,0,0,0,41.062-19.6,120.4,120.4,0,0,0,30.732-34.284c8.334-13.633,14.969-28.282,24.1-41.434a94.357,94.357,0,0,1,32.916-29.238c12.718-6.952,26.411-11.826,39.893-17.04,13.3-5.142,26.666-10.594,38.561-18.567a83.87,83.87,0,0,0,29.737-34,81.454,81.454,0,0,0,6.92-46.445A82.41,82.41,0,0,0,267.9,235.409a78.449,78.449,0,0,0-8.36-8.215c-2.283-1.937-5.609,1.357-3.308,3.308" transform="translate(-51.252 126.833)" fill="#2a8699"/>
        <path id="Path_175" data-name="Path 175" d="M640.438,694.2c97.334-116.437,206.97-226.994,343-294.287,198.587-98.244,431.872-94.23,651.541-65.352,6.393.841,13.234,1.908,17.923,6.332,3.55,3.352,5.306,8.132,6.933,12.737a2342.567,2342.567,0,0,1,100.261,385.736c-228.9,22.957-459.141,28.541-689.119,34.108Q826.289,779.4,581.6,785.322c23.212-44.932,55.5-84.429,87.54-123.557" transform="translate(274.276 177.226)" fill="#f4af9e"/>
        <path id="Path_176" data-name="Path 176" d="M656.353,678.094A661.705,661.705,0,0,1,776.876,506.476c50.524-52.164,109.491-97.553,174.241-130.647,72.066-36.834,152.781-53.98,232.755-62.753,81.03-8.89,163.8-7.05,243.458,11.227,70.429,16.159,138.338,45.012,196.807,87.76q11.323,8.28,22.118,17.241c2.3,1.906,5.63-1.387,3.308-3.308-56.295-46.595-122.941-79.427-193.154-99.115-78.145-21.912-160.2-27.351-240.934-21.39a944.9,944.9,0,0,0-122.635,17.286C1053.3,331,1014.3,342.2,977.219,358.328,909.083,387.954,846.91,432.479,793.27,483.622,741.792,532.7,697.7,589.716,664.137,652.468q-6.155,11.508-11.824,23.265c-1.307,2.7,2.726,5.074,4.04,2.361" transform="translate(282.709 189.367)" fill="#ed7b68"/>
        <rect id="Rectangle_28" data-name="Rectangle 28" width="2.227" height="24.049" transform="translate(97.078 498.342)" fill="#48330b"/>
        <path id="Path_177" data-name="Path 177" d="M110.163,322.63a5.994,5.994,0,0,0-2.446-4.832,6,6,0,0,0-7.469-8.36,4.006,4.006,0,1,0-7.231,3.158,5.995,5.995,0,0,0-1.658,8.778,4,4,0,0,0-.388,6.2,6,6,0,0,0,5.164,9.081c.131,0,.262-.011.391-.019a6,6,0,0,0,9.177-5,6,6,0,0,0,2.664-4.727,5.992,5.992,0,0,0,1.8-4.283" transform="translate(-1.06 171.48)" fill="#43937e"/>
        <rect id="Rectangle_29" data-name="Rectangle 29" width="2.227" height="24.049" transform="translate(154.813 438.744)" fill="#48330b"/>
        <path id="Path_178" data-name="Path 178" d="M147.179,284.419a6,6,0,0,0-2.446-4.832,6,6,0,0,0-7.469-8.358,4.006,4.006,0,1,0-7.231,3.158,5.993,5.993,0,0,0-1.658,8.776,4,4,0,0,0-.388,6.2,6,6,0,0,0,5.164,9.082c.131,0,.262-.012.392-.02a6,6,0,0,0,9.177-5,6,6,0,0,0,2.664-4.728,5.99,5.99,0,0,0,1.8-4.283" transform="translate(19.658 150.093)" fill="#43937e"/>
        <rect id="Rectangle_30" data-name="Rectangle 30" width="2.227" height="24.049" transform="translate(72.866 427.57)" fill="#48330b"/>
        <path id="Path_179" data-name="Path 179" d="M94.64,277.255a5.994,5.994,0,0,0-2.446-4.832,6,6,0,0,0-7.469-8.36,4.006,4.006,0,1,0-7.231,3.158A5.995,5.995,0,0,0,75.836,276a4,4,0,0,0-.388,6.2,6,6,0,0,0,5.164,9.081c.131,0,.262-.011.391-.019a6,6,0,0,0,9.177-5,6,6,0,0,0,2.664-4.727,5.992,5.992,0,0,0,1.8-4.283" transform="translate(-9.748 146.084)" fill="#43937e"/>
        <rect id="Rectangle_31" data-name="Rectangle 31" width="2.834" height="30.608" transform="translate(131.048 469.435)" fill="#48330b"/>
        <path id="Path_180" data-name="Path 180" d="M136.05,304.948a7.631,7.631,0,0,0-3.113-6.15,7.638,7.638,0,0,0-9.5-10.639,5.1,5.1,0,1,0-9.2,4.019,7.626,7.626,0,0,0-2.11,11.171,5.087,5.087,0,0,0-.494,7.9,7.641,7.641,0,0,0,6.571,11.559c.17,0,.334-.016.5-.027a7.637,7.637,0,0,0,11.681-6.362,7.64,7.64,0,0,0,3.389-6.016,7.627,7.627,0,0,0,2.285-5.451" transform="translate(10.302 159.101)" fill="#43937e"/>
        <rect id="Rectangle_32" data-name="Rectangle 32" width="2.834" height="30.608" transform="translate(73.312 475.021)" fill="#48330b"/>
        <path id="Path_181" data-name="Path 181" d="M99.033,308.53a7.631,7.631,0,0,0-3.113-6.15,7.638,7.638,0,0,0-9.5-10.639,5.1,5.1,0,1,0-9.2,4.019,7.626,7.626,0,0,0-2.11,11.171,5.087,5.087,0,0,0-.494,7.9,7.641,7.641,0,0,0,6.571,11.559c.17,0,.334-.016.5-.027A7.637,7.637,0,0,0,93.358,320a7.64,7.64,0,0,0,3.389-6.016,7.627,7.627,0,0,0,2.285-5.451" transform="translate(-10.416 161.106)" fill="#43937e"/>
        <rect id="Rectangle_33" data-name="Rectangle 33" width="2.834" height="30.608" transform="translate(103.112 447.085)" fill="#48330b"/>
        <path id="Path_182" data-name="Path 182" d="M118.139,290.619a7.631,7.631,0,0,0-3.113-6.15,7.638,7.638,0,0,0-9.5-10.639,5.1,5.1,0,1,0-9.2,4.019,7.626,7.626,0,0,0-2.11,11.171,5.087,5.087,0,0,0-.494,7.9,7.641,7.641,0,0,0,6.571,11.559c.17,0,.334-.016.5-.026a7.637,7.637,0,0,0,11.681-6.362,7.64,7.64,0,0,0,3.389-6.016,7.626,7.626,0,0,0,2.285-5.451" transform="translate(0.277 151.081)" fill="#43937e"/>
        <rect id="Rectangle_34" data-name="Rectangle 34" width="2.834" height="30.608" transform="translate(49.101 458.259)" fill="#48330b"/>
        <path id="Path_183" data-name="Path 183" d="M83.511,297.783a7.631,7.631,0,0,0-3.113-6.15,7.639,7.639,0,0,0-9.506-10.639,5.1,5.1,0,1,0-9.2,4.019,7.626,7.626,0,0,0-2.11,11.171,5.087,5.087,0,0,0-.494,7.9,7.641,7.641,0,0,0,6.571,11.559c.17,0,.334-.016.5-.027a7.637,7.637,0,0,0,11.681-6.362,7.639,7.639,0,0,0,3.388-6.016,7.628,7.628,0,0,0,2.287-5.451" transform="translate(-19.104 155.091)" fill="#43937e"/>
        <rect id="Rectangle_35" data-name="Rectangle 35" width="3.073" height="33.181" transform="translate(682.439 785.665)" fill="#48330b"/>
        <path id="Path_184" data-name="Path 184" d="M491.183,508.032a8.273,8.273,0,0,0-3.375-6.668,8.28,8.28,0,0,0-10.3-11.532,5.527,5.527,0,1,0-9.977,4.358,8.27,8.27,0,0,0-2.288,12.11,5.516,5.516,0,0,0-.535,8.56,8.283,8.283,0,0,0,7.123,12.529c.182,0,.362-.016.543-.028a8.277,8.277,0,0,0,12.662-6.9,8.28,8.28,0,0,0,3.675-6.523,8.268,8.268,0,0,0,2.477-5.908" transform="translate(207.847 271.796)" fill="#43937e"/>
        <rect id="Rectangle_36" data-name="Rectangle 36" width="3.073" height="33.181" transform="translate(762.097 703.439)" fill="#48330b"/>
        <path id="Path_185" data-name="Path 185" d="M542.255,455.313a8.273,8.273,0,0,0-3.375-6.668,8.28,8.28,0,0,0-10.3-11.532,5.527,5.527,0,1,0-9.977,4.358,8.269,8.269,0,0,0-2.288,12.11,5.516,5.516,0,0,0-.535,8.56,8.283,8.283,0,0,0,7.123,12.529c.184,0,.362-.016.543-.028a8.277,8.277,0,0,0,12.662-6.9,8.28,8.28,0,0,0,3.675-6.523,8.269,8.269,0,0,0,2.477-5.908" transform="translate(236.432 242.288)" fill="#43937e"/>
        <rect id="Rectangle_37" data-name="Rectangle 37" width="3.073" height="33.181" transform="translate(649.035 688.021)" fill="#48330b"/>
        <path id="Path_186" data-name="Path 186" d="M469.766,445.428a8.273,8.273,0,0,0-3.375-6.668,8.28,8.28,0,0,0-10.3-11.532,5.527,5.527,0,1,0-9.977,4.358,8.269,8.269,0,0,0-2.288,12.11,5.516,5.516,0,0,0-.535,8.56,8.283,8.283,0,0,0,7.123,12.529c.182,0,.362-.016.543-.028a8.277,8.277,0,0,0,12.662-6.9,8.28,8.28,0,0,0,3.675-6.523,8.268,8.268,0,0,0,2.477-5.908" transform="translate(195.859 236.756)" fill="#43937e"/>
        <rect id="Rectangle_38" data-name="Rectangle 38" width="3.91" height="42.231" transform="translate(729.307 745.78)" fill="#48330b"/>
        <path id="Path_187" data-name="Path 187" d="M526.9,483.634a10.527,10.527,0,0,0-4.3-8.485,10.537,10.537,0,0,0-13.114-14.678,7.035,7.035,0,1,0-12.7,5.545,10.525,10.525,0,0,0-2.91,15.413,7.016,7.016,0,0,0-.682,10.893,10.542,10.542,0,0,0,9.067,15.946c.232,0,.46-.02.689-.034a10.536,10.536,0,0,0,16.115-8.778,10.546,10.546,0,0,0,4.678-8.3,10.516,10.516,0,0,0,3.152-7.519" transform="translate(223.522 254.717)" fill="#43937e"/>
        <rect id="Rectangle_39" data-name="Rectangle 39" width="3.91" height="42.231" transform="translate(649.649 753.49)" fill="#48330b"/>
        <path id="Path_188" data-name="Path 188" d="M475.828,488.576a10.527,10.527,0,0,0-4.3-8.485,10.537,10.537,0,0,0-13.114-14.678,7.035,7.035,0,1,0-12.7,5.545,10.525,10.525,0,0,0-2.91,15.413,7.016,7.016,0,0,0-.682,10.893,10.541,10.541,0,0,0,9.067,15.946c.232,0,.46-.02.689-.034A10.536,10.536,0,0,0,468,504.4a10.546,10.546,0,0,0,4.678-8.3,10.522,10.522,0,0,0,3.152-7.519" transform="translate(194.937 257.483)" fill="#43937e"/>
        <rect id="Rectangle_40" data-name="Rectangle 40" width="3.91" height="42.231" transform="translate(690.763 714.946)" fill="#48330b"/>
        <path id="Path_189" data-name="Path 189" d="M502.188,463.864a10.527,10.527,0,0,0-4.3-8.485A10.538,10.538,0,0,0,484.778,440.7a7.035,7.035,0,1,0-12.7,5.545,10.525,10.525,0,0,0-2.91,15.413,7.017,7.017,0,0,0-.682,10.893,10.542,10.542,0,0,0,9.067,15.946c.232,0,.46-.02.689-.034a10.536,10.536,0,0,0,16.115-8.778,10.546,10.546,0,0,0,4.678-8.3,10.522,10.522,0,0,0,3.152-7.519" transform="translate(209.691 243.652)" fill="#43937e"/>
        <rect id="Rectangle_41" data-name="Rectangle 41" width="3.91" height="42.231" transform="translate(616.245 730.363)" fill="#48330b"/>
        <path id="Path_190" data-name="Path 190" d="M454.411,473.749a10.527,10.527,0,0,0-4.3-8.485A10.538,10.538,0,0,0,437,450.586a7.035,7.035,0,1,0-12.7,5.545,10.525,10.525,0,0,0-2.91,15.413,7.016,7.016,0,0,0-.682,10.893,10.541,10.541,0,0,0,9.067,15.946c.232,0,.46-.02.689-.034a10.536,10.536,0,0,0,16.115-8.778,10.546,10.546,0,0,0,4.678-8.3,10.522,10.522,0,0,0,3.152-7.519" transform="translate(182.95 249.185)" fill="#43937e"/>
        <rect id="Rectangle_42" data-name="Rectangle 42" width="2.825" height="24.709" transform="translate(1805.497 744.394)" fill="#48330b"/>
        <path id="Path_191" data-name="Path 191" d="M1217.8,479.342a11.022,11.022,0,0,0-2.149-6.582,11.214,11.214,0,0,0,.738-4.008c0-5.847-4.425-10.589-9.884-10.589a9.28,9.28,0,0,0-3.974.9,9.68,9.68,0,0,0-8.028-4.428c-5.459,0-9.884,4.742-9.884,10.589a11.217,11.217,0,0,0,.582,3.55,8.569,8.569,0,0,0-7.876,8.8c0,4.874,3.687,8.825,8.237,8.825a7.557,7.557,0,0,0,1.117-.091c1.435,6.133,6.6,10.681,12.768,10.681a13.1,13.1,0,0,0,11.706-7.652,10.555,10.555,0,0,0,6.649-10" transform="translate(607.703 254.462)" fill="#43937e"/>
        <rect id="Rectangle_43" data-name="Rectangle 43" width="2.825" height="24.709" transform="translate(1815.772 793.565)" fill="#48330b"/>
        <path id="Path_192" data-name="Path 192" d="M1224.385,510.868a11.022,11.022,0,0,0-2.149-6.582,11.214,11.214,0,0,0,.738-4.008c0-5.847-4.425-10.589-9.884-10.589a9.281,9.281,0,0,0-3.974.9,9.68,9.68,0,0,0-8.028-4.428c-5.459,0-9.884,4.742-9.884,10.589a11.22,11.22,0,0,0,.582,3.55,8.568,8.568,0,0,0-7.876,8.8c0,4.874,3.687,8.825,8.237,8.825a7.527,7.527,0,0,0,1.115-.09c1.437,6.133,6.6,10.681,12.769,10.681a13.1,13.1,0,0,0,11.706-7.652,10.555,10.555,0,0,0,6.649-10" transform="translate(611.391 272.107)" fill="#43937e"/>
        <rect id="Rectangle_44" data-name="Rectangle 44" width="22.611" height="2.585" transform="translate(1187.416 780.758) rotate(-87.752)" fill="#48330b"/>
        <path id="Path_193" data-name="Path 193" d="M819.968,488.756a10.072,10.072,0,0,0-1.73-6.1,10.264,10.264,0,0,0,.819-3.639c.211-5.348-3.667-9.842-8.658-10.038a8.491,8.491,0,0,0-3.665.678,8.864,8.864,0,0,0-7.182-4.338c-4.991-.2-9.208,3.98-9.418,9.329a10.268,10.268,0,0,0,.4,3.268,8.1,8.1,0,0,0-.3,16.134,7.2,7.2,0,0,0,1.025-.042,12.245,12.245,0,0,0,11.291,10.224,11.985,11.985,0,0,0,10.979-6.577,9.661,9.661,0,0,0,6.44-8.9" transform="translate(387.007 260.442)" fill="#43937e"/>
        <rect id="Rectangle_45" data-name="Rectangle 45" width="2.138" height="18.716" transform="translate(1154.483 766.202)" fill="#48330b"/>
        <path id="Path_194" data-name="Path 194" d="M793.769,492.82a8.345,8.345,0,0,0-1.628-4.986,8.468,8.468,0,0,0,.558-3.035,7.768,7.768,0,0,0-7.487-8.022,7.025,7.025,0,0,0-3.01.68,7.335,7.335,0,0,0-6.081-3.353,7.767,7.767,0,0,0-7.487,8.022,8.514,8.514,0,0,0,.44,2.687,6.707,6.707,0,0,0,.273,13.356,5.8,5.8,0,0,0,.845-.069,10.138,10.138,0,0,0,9.672,8.09,9.922,9.922,0,0,0,8.867-5.8,8,8,0,0,0,5.038-7.574" transform="translate(375.865 265.359)" fill="#43937e"/>
        <rect id="Rectangle_46" data-name="Rectangle 46" width="2.138" height="18.716" transform="translate(1226.23 780.239)" fill="#48330b"/>
        <path id="Path_195" data-name="Path 195" d="M839.769,501.819a8.344,8.344,0,0,0-1.628-4.986,8.466,8.466,0,0,0,.558-3.035,7.768,7.768,0,0,0-7.487-8.022,7.025,7.025,0,0,0-3.01.68,7.335,7.335,0,0,0-6.081-3.353,7.767,7.767,0,0,0-7.487,8.022,8.514,8.514,0,0,0,.44,2.687,6.707,6.707,0,0,0,.273,13.356,5.789,5.789,0,0,0,.845-.069,10.138,10.138,0,0,0,9.672,8.09,9.922,9.922,0,0,0,8.867-5.8,8,8,0,0,0,5.038-7.574" transform="translate(401.612 270.396)" fill="#43937e"/>
        <rect id="Rectangle_47" data-name="Rectangle 47" width="2.825" height="24.709" transform="translate(1841.759 705.365)" fill="#48330b"/>
        <path id="Path_196" data-name="Path 196" d="M1241.046,454.319a11.02,11.02,0,0,0-2.149-6.582,11.207,11.207,0,0,0,.738-4.008c0-5.847-4.425-10.589-9.884-10.589a9.28,9.28,0,0,0-3.974.9,9.68,9.68,0,0,0-8.028-4.428c-5.459,0-9.884,4.742-9.884,10.589a11.216,11.216,0,0,0,.582,3.55,8.57,8.57,0,0,0-7.877,8.8c0,4.874,3.687,8.825,8.237,8.825a7.536,7.536,0,0,0,1.115-.09c1.437,6.133,6.6,10.681,12.768,10.681a13.1,13.1,0,0,0,11.707-7.652,10.555,10.555,0,0,0,6.649-10" transform="translate(620.716 240.456)" fill="#43937e"/>
        <rect id="Rectangle_48" data-name="Rectangle 48" width="2.825" height="24.709" transform="translate(1842.994 756.482)" fill="#48330b"/>
        <path id="Path_197" data-name="Path 197" d="M1241.838,487.093a11.022,11.022,0,0,0-2.149-6.582,11.214,11.214,0,0,0,.738-4.008c0-5.847-4.425-10.589-9.884-10.589a9.281,9.281,0,0,0-3.974.9,9.68,9.68,0,0,0-8.028-4.428c-5.459,0-9.884,4.742-9.884,10.589a11.217,11.217,0,0,0,.582,3.55,8.568,8.568,0,0,0-7.876,8.8c0,4.874,3.687,8.825,8.237,8.825a7.518,7.518,0,0,0,1.115-.091c1.437,6.133,6.6,10.681,12.769,10.681a13.1,13.1,0,0,0,11.706-7.652,10.555,10.555,0,0,0,6.649-10" transform="translate(621.159 258.8)" fill="#43937e"/>
        <path id="Path_198" data-name="Path 198" d="M794.019,284.36c-1.421,5.543-.3,11.383.842,16.99,5.108,25.049,10.653,50.1,19.326,74.15s20.593,47.181,37.36,66.481l1.292,1.121H835.62c-36.168-60.581-46.991-104.83-45.718-159.123a28.437,28.437,0,0,1,4.118.381" transform="translate(390.807 158.945)" fill="#48330b"/>
        <path id="Path_199" data-name="Path 199" d="M800.284,282.984c-9.69,1.351-17.827,8.287-23.3,16.4a57.517,57.517,0,0,0,8.586,74.359c-11.42-29.588-10.241-65.957,14.678-90.607" transform="translate(378.131 158.388)" fill="#43937e"/>
        <path id="Path_200" data-name="Path 200" d="M813.429,284.263c-10.227-4.7-20.927-8.868-32.152-9.683s-23.157,2.126-31.186,10.013c-10.464,10.28-11.938,28.4-3.272,40.24,1.068-10.756,6.87-20.788,15.084-27.814s18.687-11.154,29.4-12.579a86.753,86.753,0,0,1,22.163.059" transform="translate(363.587 153.611)" fill="#43937e"/>
        <path id="Path_201" data-name="Path 201" d="M795.057,307.67c-3.915-10.743-7.858-21.613-9.106-32.978s.451-23.452,7.006-32.819,18.6-15.319,29.712-12.6c-12.4,7.271-20.233,20.669-23.879,34.572s-3.955,29.425-3.887,43.8" transform="translate(388.438 127.954)" fill="#43937e"/>
        <path id="Path_202" data-name="Path 202" d="M792.973,294.407c2.141-10.411,5.56-20.844,12.233-29.117s17.1-14.087,27.677-13.038c8.151.808,15.627,5.641,20.485,12.237S860.607,279.3,861,287.479c-8.073-12.409-24.726-18.487-38.893-14.2-10.848,3.286-20.952,13.052-28.934,21.1" transform="translate(392.581 141.119)" fill="#43937e"/>
        <path id="Path_203" data-name="Path 203" d="M794.624,281.776c7.719-2.375,11.737-3.222,16.031-3.562,11.194-.889,19.3-.618,28.783,5.4a29.406,29.406,0,0,1,11.843,14.836c3.69,10.363,1.277,21.788-1.171,32.511-.267-9.4-4.533-19.757-10.361-27.214-10.116-12.942-28.628-19.379-44.876-21.812" transform="translate(393.505 155.507)" fill="#43937e"/>
        <path id="Path_204" data-name="Path 204" d="M736.882,269.977c5.643-6.724,8.834-9.748,12.61-12.287,9.845-6.619,17.569-10.294,30.308-7.608,7.313,1.541,14.714,5.953,20.677,12.326,10.174,10.873,15.357,26.061,20.05,40.412A81.843,81.843,0,0,0,793.183,274.6c-17.837-10.859-39.258-9.6-55.969-4.548" transform="translate(361.186 139.477)" fill="#43937e"/>
        <path id="Path_205" data-name="Path 205" d="M791.742,282.044c-1.5-.042-1.686,2.127-1.408,3.6.42,2.224.948,4.4,3.19,4.709.744.1,2.581.05,2.968-.593.353-.582,1.4-2.324,1.189-2.97-.853-2.545-1.781-6.53-5.938-4.749" transform="translate(391.043 157.614)" fill="#211f20"/>
        <path id="Path_206" data-name="Path 206" d="M787.9,283.29c-.466.268-1.524.686-1.781,1.187a4.9,4.9,0,0,0-.594,1.188,5.139,5.139,0,0,0,2.464,5.651,3.416,3.416,0,0,0,2.99.006,4.212,4.212,0,0,0,2.042-2.235,5.524,5.524,0,0,0,.265-3.046,4.55,4.55,0,0,0-1.652-2.887,3.086,3.086,0,0,0-1.825-.6,3.727,3.727,0,0,0-1.909.733" transform="translate(388.352 158.149)" fill="#211f20"/>
        <path id="Path_207" data-name="Path 207" d="M792.852,277.58c-.466.268-1.524.686-1.781,1.187a4.9,4.9,0,0,0-.594,1.188,5.139,5.139,0,0,0,2.464,5.651,3.416,3.416,0,0,0,2.99.006,4.212,4.212,0,0,0,2.042-2.235,5.523,5.523,0,0,0,.265-3.046,4.551,4.551,0,0,0-1.652-2.887,3.088,3.088,0,0,0-1.827-.6,3.723,3.723,0,0,0-1.907.733" transform="translate(391.122 154.953)" fill="#211f20"/>
        <path id="Path_208" data-name="Path 208" d="M793.679,283.057a8.03,8.03,0,0,0,2.934,10.912,4.1,4.1,0,0,0,2.167.551c2.656-.192,4.794-4.673,4.4-7.306a6.93,6.93,0,0,0-4.157-5.344c-2.2-.894-3.562-.594-5.344,1.187" transform="translate(392.372 157.492)" fill="#211f20"/>
        <path id="Path_209" data-name="Path 209" d="M785.685,278.87a8.03,8.03,0,0,0,2.934,10.912,4.1,4.1,0,0,0,2.166.551c2.656-.192,4.795-4.673,4.4-7.306a6.93,6.93,0,0,0-4.157-5.344c-2.2-.894-3.562-.594-5.344,1.187" transform="translate(387.898 155.148)" fill="#211f20"/>
        <path id="Path_210" data-name="Path 210" d="M772.467,321.278c.111,4.206,1.826,8.246,3.517,12.114,7.551,17.283,15.366,34.5,24.919,50.528s20.93,30.907,34.591,42.3l.989.615-10.528,2.583C793.135,391.19,778.7,360.93,769.883,321.621a15.293,15.293,0,0,1,2.584-.343" transform="translate(379.657 179.822)" fill="#48330b"/>
        <path id="Path_211" data-name="Path 211" d="M773.507,321c-5.687,2.427-9.436,8.644-11.348,15.309a49.186,49.186,0,0,0,1.067,29.351A46.2,46.2,0,0,0,780.548,388.6c-12.211-19.606-17.918-45.988-7.036-67.484" transform="translate(374.356 179.667)" fill="#43937e"/>
        <path id="Path_212" data-name="Path 212" d="M782.587,320.432c-7.086-1.851-14.362-3.252-21.371-2.155s-13.783,5.005-17.3,11.891c-4.582,8.978-2.28,22.255,5.11,29.485a33.769,33.769,0,0,1,4.308-22.3,33.236,33.236,0,0,1,15.753-13.473,46.431,46.431,0,0,1,13.565-3.28" transform="translate(363.804 177.926)" fill="#43937e"/>
        <path id="Path_213" data-name="Path 213" d="M775.242,339.619c-4.291-7.153-8.624-14.395-11.4-22.4s-3.868-16.965-1.516-24.7S771,278.7,778.271,278.99c-6.3,7.1-8.717,17.926-8.491,28.49s2.782,21.8,5.364,32.141" transform="translate(374.711 156.147)" fill="#43937e"/>
        <path id="Path_214" data-name="Path 214" d="M771.027,330.7c-.53-7.822-.284-15.851,2.335-22.814s7.965-12.713,14.619-13.543c5.127-.641,10.552,1.72,14.688,5.744a35.15,35.15,0,0,1,8.728,15.419c-7.128-7.73-18.384-9.612-26.289-4.4-6.053,3.994-10.5,12.546-13.963,19.542" transform="translate(380.17 164.687)" fill="#43937e"/>
        <path id="Path_215" data-name="Path 215" d="M772.153,320.756c4.3-2.868,6.607-4.082,9.173-4.971,6.686-2.319,11.692-3.339,18.553-.427a21.572,21.572,0,0,1,9.864,8.915c4.086,6.913,4.631,15.505,5.029,23.6a40.447,40.447,0,0,0-11.144-18.054c-8.474-7.809-20.93-9.67-31.294-8.985" transform="translate(380.928 175.509)" fill="#43937e"/>
        <path id="Path_216" data-name="Path 216" d="M733.694,321.436c2.262-5.691,3.679-8.348,5.539-10.743,4.851-6.247,8.923-10.052,17.188-10.027,4.745.014,10.049,2.082,14.82,5.78,8.143,6.309,14,16.475,19.4,26.109a57.436,57.436,0,0,0-21.707-16.235c-12.825-5.149-25.7-1.026-35.026,5.116" transform="translate(359.402 168.284)" fill="#43937e"/>
        <path id="Path_217" data-name="Path 217" d="M770.55,320.022c-.927.195-.655,1.786-.225,2.807.649,1.539,1.359,3.031,2.783,2.915.473-.039,1.586-.353,1.711-.873a5.207,5.207,0,0,0,.2-2.318c-.972-1.706-2.243-4.437-4.47-2.531" transform="translate(379.683 178.755)" fill="#211f20"/>
        <path id="Path_218" data-name="Path 218" d="M768.341,321.549c-.237.264-.809.724-.88,1.123a3.955,3.955,0,0,0-.153.944,4.105,4.105,0,0,0,2.5,3.7,1.859,1.859,0,0,0,1.829-.443,3,3,0,0,0,.853-1.917,4.77,4.77,0,0,0-.376-2.235,3.554,3.554,0,0,0-1.519-1.833,1.764,1.764,0,0,0-1.223-.156,2.156,2.156,0,0,0-1.037.814" transform="translate(378.214 179.491)" fill="#211f20"/>
        <path id="Path_219" data-name="Path 219" d="M770.358,316.693c-.237.264-.81.724-.88,1.123a3.967,3.967,0,0,0-.153.944,4.105,4.105,0,0,0,2.5,3.7,1.86,1.86,0,0,0,1.83-.443,3,3,0,0,0,.853-1.917,4.773,4.773,0,0,0-.376-2.235,3.554,3.554,0,0,0-1.519-1.833,1.763,1.763,0,0,0-1.223-.156,2.155,2.155,0,0,0-1.037.814" transform="translate(379.343 176.773)" fill="#211f20"/>
        <path id="Path_220" data-name="Path 220" d="M771.771,320.516c-.772,2.878,1.107,6.576,3.721,7.423a2.29,2.29,0,0,0,1.422.072c1.589-.537,2.106-4.086,1.4-5.924a5.083,5.083,0,0,0-3.486-3.227c-1.5-.314-2.282.106-3.057,1.656" transform="translate(380.616 178.414)" fill="#211f20"/>
        <path id="Path_221" data-name="Path 221" d="M766.144,318.7c-.774,2.878,1.106,6.576,3.72,7.423a2.289,2.289,0,0,0,1.422.072c1.589-.536,2.106-4.086,1.4-5.924a5.083,5.083,0,0,0-3.486-3.227c-1.5-.313-2.283.106-3.055,1.656" transform="translate(377.466 177.396)" fill="#211f20"/>
        <path id="Path_222" data-name="Path 222" d="M166.949,468.033c.769,3,.164,6.156-.455,9.188-2.762,13.546-5.762,27.094-10.452,40.1s-11.136,25.515-20.2,35.953l-.7.607h9.313c19.559-32.762,25.412-56.692,24.724-86.054a15.371,15.371,0,0,0-2.227.206" transform="translate(24.386 261.846)" fill="#48330b"/>
        <path id="Path_223" data-name="Path 223" d="M157.756,467.289c5.241.73,9.641,4.481,12.6,8.869a31.106,31.106,0,0,1-4.643,40.212c6.176-16,5.539-35.669-7.939-49" transform="translate(37.045 261.545)" fill="#43937e"/>
        <path id="Path_224" data-name="Path 224" d="M158.248,467.98c5.531-2.541,11.317-4.8,17.388-5.236s12.523,1.149,16.865,5.415a17.252,17.252,0,0,1,1.77,21.761,23.208,23.208,0,0,0-8.157-15.042,30.661,30.661,0,0,0-15.9-6.8,46.924,46.924,0,0,0-11.986.031" transform="translate(37.309 258.962)" fill="#43937e"/>
        <path id="Path_225" data-name="Path 225" d="M161.354,480.639c2.117-5.81,4.249-11.688,4.924-17.835s-.243-12.682-3.789-17.748-10.062-8.285-16.068-6.816c6.705,3.932,10.941,11.178,12.913,18.7s2.138,15.914,2.1,23.687" transform="translate(30.701 245.086)" fill="#43937e"/>
        <path id="Path_226" data-name="Path 226" d="M168.483,473.466c-1.159-5.63-3.007-11.272-6.616-15.747s-9.246-7.618-14.967-7.05a16.094,16.094,0,0,0-11.079,6.618,22.8,22.8,0,0,0-4.127,12.432,19.186,19.186,0,0,1,21.033-7.678c5.868,1.778,11.331,7.059,15.649,11.411" transform="translate(22.458 252.206)" fill="#43937e"/>
        <path id="Path_227" data-name="Path 227" d="M165.751,466.635a38.113,38.113,0,0,0-8.669-1.926c-6.055-.48-10.439-.334-15.566,2.92a15.9,15.9,0,0,0-6.406,8.023c-1.995,5.6-.691,11.782.633,17.581a26.558,26.558,0,0,1,5.6-14.717c5.471-7,15.483-10.48,24.269-11.8" transform="translate(23.797 259.987)" fill="#43937e"/>
        <path id="Path_228" data-name="Path 228" d="M201.848,460.255c-3.051-3.637-4.777-5.272-6.819-6.644-5.325-3.581-9.5-5.568-16.391-4.115a22.026,22.026,0,0,0-11.182,6.665c-5.5,5.882-8.305,14.1-10.845,21.855A44.264,44.264,0,0,1,171.4,462.752c9.645-5.872,21.231-5.189,30.268-2.46" transform="translate(36.405 251.318)" fill="#43937e"/>
        <path id="Path_229" data-name="Path 229" d="M157.4,466.78c.813-.022.912,1.15.761,1.948-.226,1.2-.513,2.382-1.725,2.547-.4.055-1.4.027-1.6-.321-.19-.313-.76-1.257-.643-1.6.462-1.377.964-3.533,3.211-2.569" transform="translate(35.039 261.126)" fill="#211f20"/>
        <path id="Path_230" data-name="Path 230" d="M159.57,467.454c.253.145.824.371.964.643a2.622,2.622,0,0,1,.32.641,2.779,2.779,0,0,1-1.332,3.057,1.846,1.846,0,0,1-1.617,0,2.283,2.283,0,0,1-1.1-1.209,2.994,2.994,0,0,1-.144-1.647,2.47,2.47,0,0,1,.894-1.561,1.676,1.676,0,0,1,.987-.323,2.02,2.02,0,0,1,1.033.4" transform="translate(36.4 261.416)" fill="#211f20"/>
        <path id="Path_231" data-name="Path 231" d="M156.894,464.366c.253.145.824.371.964.643a2.621,2.621,0,0,1,.32.641,2.779,2.779,0,0,1-1.332,3.057,1.846,1.846,0,0,1-1.617,0,2.283,2.283,0,0,1-1.1-1.209,2.994,2.994,0,0,1-.143-1.647,2.47,2.47,0,0,1,.894-1.561,1.677,1.677,0,0,1,.987-.323,2.02,2.02,0,0,1,1.033.4" transform="translate(34.902 259.688)" fill="#211f20"/>
        <path id="Path_232" data-name="Path 232" d="M156.961,467.328a4.342,4.342,0,0,1-1.586,5.9,2.227,2.227,0,0,1-1.173.3c-1.435-.1-2.592-2.527-2.379-3.951a3.749,3.749,0,0,1,2.248-2.89,2.272,2.272,0,0,1,2.89.643" transform="translate(33.71 261.06)" fill="#211f20"/>
        <path id="Path_233" data-name="Path 233" d="M161.285,465.064a4.343,4.343,0,0,1-1.586,5.9,2.228,2.228,0,0,1-1.173.3c-1.435-.1-2.592-2.527-2.379-3.951a3.749,3.749,0,0,1,2.248-2.89,2.271,2.271,0,0,1,2.89.643" transform="translate(36.13 259.793)" fill="#211f20"/>
        <path id="Path_234" data-name="Path 234" d="M179.3,488a17.992,17.992,0,0,1-1.9,6.552,243.691,243.691,0,0,1-13.477,27.325c-5.166,8.667-11.319,16.715-18.707,22.875l-.533.332,5.693,1.4c17.749-20.672,25.556-37.037,30.324-58.3a8.152,8.152,0,0,0-1.4-.186" transform="translate(29.724 273.136)" fill="#48330b"/>
        <path id="Path_235" data-name="Path 235" d="M169.715,487.849c3.076,1.312,5.1,4.674,6.137,8.279A26.6,26.6,0,0,1,175.276,512a24.979,24.979,0,0,1-9.368,12.4c6.6-10.6,9.689-24.869,3.8-36.5" transform="translate(41.608 273.053)" fill="#43937e"/>
        <path id="Path_236" data-name="Path 236" d="M168.873,487.54c3.831-1,7.767-1.759,11.557-1.165a12.451,12.451,0,0,1,9.355,6.431c2.478,4.854,1.234,12.036-2.764,15.945a18.269,18.269,0,0,0-2.329-12.061,17.969,17.969,0,0,0-8.521-7.285,25.1,25.1,0,0,0-7.335-1.775" transform="translate(43.247 272.111)" fill="#43937e"/>
        <path id="Path_237" data-name="Path 237" d="M168.213,497.917a65.62,65.62,0,0,0,6.162-12.111c1.5-4.328,2.092-9.176.82-13.357s-4.689-7.477-8.621-7.32c3.4,3.838,4.715,9.7,4.592,15.408s-1.505,11.785-2.9,17.381" transform="translate(41.981 260.333)" fill="#43937e"/>
        <path id="Path_238" data-name="Path 238" d="M175.028,493.093c.287-4.23.153-8.572-1.262-12.337s-4.309-6.875-7.906-7.324a10,10,0,0,0-7.944,3.107,19,19,0,0,0-4.72,8.338c3.854-4.18,9.942-5.2,14.217-2.377,3.272,2.16,5.68,6.785,7.551,10.567" transform="translate(34.494 264.952)" fill="#43937e"/>
        <path id="Path_239" data-name="Path 239" d="M174.811,487.716a20.938,20.938,0,0,0-4.96-2.689c-3.617-1.254-6.323-1.8-10.034-.229a11.646,11.646,0,0,0-5.334,4.819c-2.21,3.739-2.5,8.387-2.72,12.763a21.887,21.887,0,0,1,6.027-9.764c4.582-4.222,11.319-5.23,16.924-4.86" transform="translate(33.691 270.804)" fill="#43937e"/>
        <path id="Path_240" data-name="Path 240" d="M198.391,488.084a22.087,22.087,0,0,0-3-5.81c-2.622-3.378-4.826-5.437-9.294-5.423a13.63,13.63,0,0,0-8.015,3.126c-4.4,3.413-7.568,8.911-10.492,14.122a31.067,31.067,0,0,1,11.74-8.781c6.936-2.784,13.9-.555,18.941,2.767" transform="translate(42.551 266.897)" fill="#43937e"/>
        <path id="Path_241" data-name="Path 241" d="M168.413,487.319c.5.106.354.965.122,1.518-.351.833-.735,1.639-1.505,1.577-.256-.02-.858-.19-.925-.473a2.794,2.794,0,0,1-.109-1.252c.526-.923,1.213-2.4,2.418-1.369" transform="translate(41.63 272.56)" fill="#211f20"/>
        <path id="Path_242" data-name="Path 242" d="M169.613,488.145c.128.142.438.391.476.607a2.187,2.187,0,0,1,.083.512,2.22,2.22,0,0,1-1.355,2,1.008,1.008,0,0,1-.989-.24,1.628,1.628,0,0,1-.462-1.037,2.613,2.613,0,0,1,.2-1.209,1.921,1.921,0,0,1,.824-.99.943.943,0,0,1,.66-.084,1.158,1.158,0,0,1,.561.44" transform="translate(42.419 272.958)" fill="#211f20"/>
        <path id="Path_243" data-name="Path 243" d="M168.522,485.518c.128.142.438.391.476.607a2.189,2.189,0,0,1,.083.512,2.22,2.22,0,0,1-1.355,2,1.008,1.008,0,0,1-.989-.24,1.628,1.628,0,0,1-.462-1.037,2.613,2.613,0,0,1,.2-1.209,1.92,1.92,0,0,1,.824-.99.943.943,0,0,1,.66-.084,1.158,1.158,0,0,1,.561.44" transform="translate(41.808 271.487)" fill="#211f20"/>
        <path id="Path_244" data-name="Path 244" d="M168.111,487.586A3.555,3.555,0,0,1,166.1,491.6a1.235,1.235,0,0,1-.771.037c-.859-.29-1.139-2.209-.756-3.2a2.755,2.755,0,0,1,1.886-1.745c.814-.168,1.235.058,1.653.9" transform="translate(40.766 272.375)" fill="#211f20"/>
        <path id="Path_245" data-name="Path 245" d="M171.154,486.6a3.555,3.555,0,0,1-2.012,4.015,1.235,1.235,0,0,1-.771.037c-.859-.29-1.139-2.208-.756-3.2a2.755,2.755,0,0,1,1.886-1.745c.814-.168,1.235.058,1.653.9" transform="translate(42.47 271.825)" fill="#211f20"/>
        <path id="Path_246" data-name="Path 246" d="M523.927,183.591A89.591,89.591,0,1,1,434.336,94a89.591,89.591,0,0,1,89.591,89.591" transform="translate(277.897 187.505)" fill="#f79e1f"/>
        <path id="Path_247" data-name="Path 247" d="M1069.114,149.114a40.458,40.458,0,0,0-40.306,37.007,22.843,22.843,0,0,0-23.177,3.158A27.157,27.157,0,0,0,971.108,173.6a33.406,33.406,0,0,0-63.054-3.862,30.783,30.783,0,1,0-8.709,60.306c.3,0,.585-.037.88-.045v.045h168.89a40.464,40.464,0,1,0,0-80.927" transform="translate(435.886 123.396)" fill="#dce5e1"/>
        <path id="Path_248" data-name="Path 248" d="M238.245,61.142a27.9,27.9,0,0,0-27.8,25.523,15.75,15.75,0,0,0-15.984,2.177,18.735,18.735,0,0,0-23.809-10.817,23.039,23.039,0,0,0-43.486-2.662,21.229,21.229,0,1,0-6.006,41.59c.206,0,.4-.025.607-.031v.031H238.245a27.906,27.906,0,1,0,0-55.811" transform="translate(4.68 34.222)" fill="#dce5e1"/>
        <path id="Path_249" data-name="Path 249" d="M384.058,172.749c-.182,0-.362.009-.544.014a28.368,28.368,0,0,0-52.98,6.414,17.764,17.764,0,0,0-2.594-.192,17.459,17.459,0,1,0,0,34.917h56.118a20.576,20.576,0,1,0,0-41.153" transform="translate(258.719 222.857)" fill="#dce5e1"/>
        <path id="Path_250" data-name="Path 250" d="M1110.258,467l-24.722,42.2h76.3L1184,467Z" transform="translate(556.331 261.383)" fill="#fa7867"/>
        <rect id="Rectangle_49" data-name="Rectangle 49" width="65.625" height="34.714" transform="translate(1693.459 763.998)" fill="#f3e7d5"/>
        <path id="Path_251" data-name="Path 251" d="M1111.581,470.006l-20.033,35.009v30.631h42.214l-.016-32.819Z" transform="translate(559.696 263.066)" fill="#b0d7be"/>
        <path id="Path_252" data-name="Path 252" d="M1178.591,467l23.444,42.2h-75.019l-23.444-37.509L1127.016,467Z" transform="translate(566.426 261.383)" fill="#fa7867"/>
        <rect id="Rectangle_50" data-name="Rectangle 50" width="9.377" height="28.132" transform="translate(1665.311 770.58)" fill="#fa7867"/>
        <rect id="Rectangle_51" data-name="Rectangle 51" width="2.825" height="24.709" transform="translate(1776.994 775.898)" fill="#48330b"/>
        <path id="Path_253" data-name="Path 253" d="M1199.522,499.541a11.022,11.022,0,0,0-2.149-6.582,11.212,11.212,0,0,0,.738-4.007c0-5.849-4.425-10.59-9.884-10.59a9.281,9.281,0,0,0-3.974.9,9.68,9.68,0,0,0-8.028-4.428c-5.459,0-9.884,4.742-9.884,10.589a11.22,11.22,0,0,0,.582,3.55,8.569,8.569,0,0,0-7.876,8.8c0,4.874,3.687,8.825,8.237,8.825a7.518,7.518,0,0,0,1.115-.091c1.437,6.133,6.6,10.681,12.768,10.681a13.1,13.1,0,0,0,11.707-7.652,10.555,10.555,0,0,0,6.649-10" transform="translate(597.475 265.767)" fill="#43937e"/>
        <rect id="Rectangle_52" data-name="Rectangle 52" width="3.357" height="29.368" transform="translate(1196.173 817.064)" fill="#48330b"/>
        <path id="Path_254" data-name="Path 254" d="M832.287,526.327a13.094,13.094,0,0,0-2.555-7.824,13.32,13.32,0,0,0,.877-4.762c0-6.952-5.259-12.587-11.746-12.587a11.042,11.042,0,0,0-4.724,1.067,11.507,11.507,0,0,0-9.541-5.262c-6.487,0-11.746,5.635-11.746,12.587a13.311,13.311,0,0,0,.691,4.217c-5.206.243-9.361,4.829-9.361,10.466,0,5.793,4.383,10.489,9.789,10.489a9.329,9.329,0,0,0,1.327-.108C797,541.9,803.139,547.3,810.471,547.3a15.569,15.569,0,0,0,13.913-9.093,12.548,12.548,0,0,0,7.9-11.883" transform="translate(387.66 278.152)" fill="#43937e"/>
        <rect id="Rectangle_53" data-name="Rectangle 53" width="2.825" height="24.709" transform="translate(1148.218 810.722)" fill="#48330b"/>
        <path id="Path_255" data-name="Path 255" d="M796.385,521.868a11.022,11.022,0,0,0-2.149-6.582,11.214,11.214,0,0,0,.738-4.008c0-5.847-4.425-10.589-9.884-10.589a9.28,9.28,0,0,0-3.974.9,9.68,9.68,0,0,0-8.028-4.428c-5.459,0-9.884,4.742-9.884,10.589a11.217,11.217,0,0,0,.582,3.55,8.568,8.568,0,0,0-7.876,8.8c0,4.874,3.687,8.825,8.237,8.825a7.526,7.526,0,0,0,1.115-.09c1.436,6.133,6.6,10.681,12.769,10.681a13.1,13.1,0,0,0,11.706-7.652,10.555,10.555,0,0,0,6.649-10" transform="translate(371.836 278.264)" fill="#43937e"/>
        <path id="Path_256" data-name="Path 256" d="M1156.691,38.209c-.182,0-.362.009-.544.014a28.368,28.368,0,0,0-52.98,6.414,17.762,17.762,0,0,0-2.594-.192,17.459,17.459,0,1,0,0,34.917h56.118a20.576,20.576,0,1,0,0-41.153" transform="translate(554.975 12.661)" fill="#dce5e1"/>
      </g>
    </g>
    <g id="Group_54" data-name="Group 54" transform="translate(693 4910.236) rotate(-14)">
      <g id="Group_52" data-name="Group 52" clip-path="url(#clip-path-2)">
        <path id="Path_301" data-name="Path 301" d="M412.341,34.765l4.681,1.2c-.169.5-.176.7-.257.734-2.9,1.341-3.8,3.237-2.978,6.584a16.9,16.9,0,0,1-1.16,10.5,25.244,25.244,0,0,1-2.131,3.471l-.837-.093c-.481-1.754-1.043-3.492-1.425-5.267-.579-2.694-.875-5.458-1.582-8.114-.756-2.839-1.559-3.295-4.457-3.307-3.749-.016-7.5,0-11.248,0q-.032-.354-.064-.708c.463-.147.924-.3,1.387-.442,3.27-1.011,6.584-1.9,9.784-3.1.988-.369,1.667-1.564,2.487-2.381l-.418-.527-1.875-.17c-.07-.194-.183-.344-.146-.429,1.557-3.6.769-7.008-.628-10.474-.623-1.546-1.073-3.369.453-5.025l2.789,3.086c1.59-.822,1.268-2.155.992-3.347-.34-1.465-1.152-2.669-2.85-2.678-2.22-.012-4.44.172-6.66.17-1.887,0-3.775-.147-5.662-.228l-.045-.821c.648-.132,1.3-.252,1.943-.4q4.909-1.12,9.815-2.252c2.065-.476,2.537-1.99,1.977-3.694a33.6,33.6,0,0,0-2.251-4.466c-.413-.816-.781-1.655-1.212-2.576,4.431-.037,10.274,4.666,11.16,8.652a2.5,2.5,0,0,0,1.357,1.408,11.408,11.408,0,0,0,2.533.51l.346.6a14.637,14.637,0,0,1-2.451,1.722c-1.156.511-1.635,1.049-1.368,2.425.634,3.262-.78,6.109-2.384,8.762-1.136,1.88-1.336,3.238.149,5.143,1.162,1.491,1.5,3.621,2.237,5.543" transform="translate(-232.454 0)" fill="#211f20"/>
        <path id="Path_302" data-name="Path 302" d="M512.234,94.873l6.763-.4q0-.352,0-.7l-6.677-.7q-.012-.277-.024-.555c.79,0,1.58.005,2.369,0a33.326,33.326,0,0,0,12.87-2.19,3.848,3.848,0,0,0,1.93-2.208,22.943,22.943,0,0,0,.076-12.757,100.784,100.784,0,0,1-2.122-9.874,44.156,44.156,0,0,1-.3-5.382l.641-.384a18.784,18.784,0,0,1,2.488,2.494,52.374,52.374,0,0,1,7.016,16.256,40.858,40.858,0,0,1,.967,7.567c.151,2.021.355,3.693,2.976,3.9.966.076,1.871.94,3.326,1.727-1.856,1.009-3.042,1.741-4.3,2.312a2.019,2.019,0,0,0-1.318,2.361,18.316,18.316,0,0,1-1.536,9.67,9.429,9.429,0,0,1-5.164,5.077,19.131,19.131,0,0,1-1.347-4.28c-.186-2.612.068-5.251.038-7.878-.036-3.131-.414-3.432-3.486-3.36-3.909.091-7.82.178-11.73.211-1.13.009-2.262-.174-3.394-.269q-.033-.314-.066-.629" transform="translate(-304.927 -35.547)" fill="#211f20"/>
        <path id="Path_303" data-name="Path 303" d="M724.022,30.2a29.537,29.537,0,0,1,5.271.049A38.03,38.03,0,0,1,744.2,36.709a6.641,6.641,0,0,1,3.238,5.088,2.3,2.3,0,0,0,2.315,2.4,13.617,13.617,0,0,1,3.5,1.591q.031.39.062.78a41.313,41.313,0,0,1-3.717,2.453,2.166,2.166,0,0,0-1.417,2.338,7.757,7.757,0,0,1-.335,2.789,32.279,32.279,0,0,1-14,18.392,15.946,15.946,0,0,1-3.192,1.157l-.4-.57c.585-.94,1.181-1.873,1.754-2.82,2.085-3.454,4.45-6.781,6.133-10.422.962-2.079.895-4.666,1.12-7.04.11-1.162-.668-1.807-1.9-1.87-3.5-.178-7-.364-10.489-.606a12.05,12.05,0,0,1-2.765-.549,4.427,4.427,0,0,1-1.193-.914c.41-.38.769-1,1.24-1.1,2.629-.574,5.294-.982,7.93-1.531a27.627,27.627,0,0,0,4.663-1.261c2.041-.82,2.382-2.018,1.621-4.047-1.489-3.973-4.882-5.758-8.389-7.425-2.024-.962-4.065-1.891-6.1-2.835l.134-.508" transform="translate(-430.348 -17.915)" fill="#211f20"/>
        <path id="Path_304" data-name="Path 304" d="M617.855,298.314l4.22-5.007-.4-.562c-2.5.178-5,.448-7.5.506-2.379.055-4.845.352-7-1.413.482-.109.974-.183,1.442-.333,2.623-.838,5.233-1.716,7.86-2.54,3.566-1.119,5.189-3.621,4.67-7.216-1-6.91-2.209-13.79-3.364-20.677-.225-1.345-.6-2.665-.9-4l.618-.447a9.915,9.915,0,0,1,2.45,1.746,40.066,40.066,0,0,1,4.2,6.366,56.654,56.654,0,0,1,5.341,18.745,2.116,2.116,0,0,0,1.6,1.958,35.047,35.047,0,0,1,4,2.328c-1.165.781-2.383,1.5-3.481,2.363a23.368,23.368,0,0,0-3.2,2.94c-1.186,1.365-2.045,3.028-3.3,4.315a5.586,5.586,0,0,1-7.25.922" transform="translate(-361.442 -152.769)" fill="#211f20"/>
        <path id="Path_305" data-name="Path 305" d="M238.332,347.641l8.99-.945q0-.218,0-.436h-8.54l-.04-.508c6.759-1.616,13.835-1.833,20.446-4.1l.117-.78-8.487-2.853.191-.781a11.694,11.694,0,0,1,2.293-.129c3.53.483,7.076.915,10.556,1.652a5.245,5.245,0,0,1,2.962,2.115,3.742,3.742,0,0,0,3.09,1.858,14.4,14.4,0,0,1,2.565.73c-.187.467-.2.663-.291.7-3.681,1.638-4.5,4.828-5.258,8.459a37.6,37.6,0,0,1-7.861,16,20.817,20.817,0,0,1-3.622,3.164,1.626,1.626,0,0,1-1.429.045c-.218-.107-.282-.872-.163-1.264.586-1.928,1.227-3.841,1.9-5.74,1.487-4.166,3.189-8.265,4.445-12.5.755-2.545-.665-4.289-3.348-4.285-4.3.006-8.6.4-12.909.528-1.886.057-3.78-.132-5.67-.209q.028-.359.057-.72" transform="translate(-141.843 -200.658)" fill="#211f20"/>
        <path id="Path_306" data-name="Path 306" d="M213.523,4.2,205.5,1.618l-.077-.45C205.947.955,206.5.51,207,.566c3.676.418,7.366.809,11,1.5a5.294,5.294,0,0,1,3.008,2.069,3.72,3.72,0,0,0,3.226,1.96,8.985,8.985,0,0,1,2.347.7c-.083.426-.069.635-.139.669-3.634,1.763-4.578,4.939-5.307,8.668a36.449,36.449,0,0,1-7.039,14.863,26.669,26.669,0,0,1-4.006,3.938c-.414.356-1.2.275-1.823.395a4.808,4.808,0,0,1-.069-1.705c.9-2.6,1.937-5.156,2.863-7.75,1.172-3.284,2.48-6.538,3.36-9.9.758-2.9-.627-4.6-3.662-4.606-3.833,0-7.664.394-11.5.542-2.186.084-4.378.015-6.567.015l-.053-.875,9.141-1.017c0-.129,0-.258,0-.386h-8.778q-.022-.257-.045-.514c6.772-1.6,13.855-1.848,20.478-4.093q.042-.415.084-.83" transform="translate(-114.676 -0.334)" fill="#211f20"/>
        <path id="Path_307" data-name="Path 307" d="M21.23,52.642l-8.622-7.471.255-.534a10.714,10.714,0,0,1,2.815.46c3.668,1.675,7.553,3.083,10.818,5.363,2.493,1.741,4.283,4.485,8,4.946-4.567,1.658-4.961,5.493-6.1,9.066a21.233,21.233,0,0,1-7.467,10.1,14.61,14.61,0,0,1-3.113,1.844,6.418,6.418,0,0,1-2.067.181c.016-.64-.187-1.4.089-1.9a27.9,27.9,0,0,1,3.118-4.852,11.009,11.009,0,0,0,3.122-6.184c.231-2.28-.673-3.8-2.984-3.9-3.347-.138-6.712.176-10.07.232-2.992.05-5.986.011-8.979.011Q.021,59.676,0,59.338l9.272-1.059-.045-.5H.37Q.354,57.6.338,57.414l20.647-3.78.246-.992" transform="translate(0 -26.572)" fill="#211f20"/>
        <path id="Path_308" data-name="Path 308" d="M182.468,256.087a50.1,50.1,0,0,0,3.5-4.092c2.44-3.527,4.914-7.051,7.031-10.772,1.165-2.048.676-2.868-1.67-3.07-3.608-.311-7.253-.2-10.882-.261a6.443,6.443,0,0,1-2.86-.483l3.038-1.1-1.949-.682c.658-.263,1-.539,1.284-.492,3.832.633,7.142-.947,10.467-2.435,2.384-1.067,2.687-2.576.49-3.959-3.4-2.141-7.029-3.914-10.569-5.829-.539-.292-1.12-.505-1.681-.756l.052-.573a11.773,11.773,0,0,1,1.967-.412,27.933,27.933,0,0,1,15.787,4.178,6.3,6.3,0,0,1,3.43,4.734,1.938,1.938,0,0,0,2.085,1.926,4.943,4.943,0,0,1,4.274,2.716c-1.514.624-2.943,1.147-4.3,1.808a3.191,3.191,0,0,0-1.349,1.274c-1.068,2-1.8,4.222-3.082,6.072A42.132,42.132,0,0,1,186.358,254.9a34.325,34.325,0,0,1-3.451,1.818l-.44-.629" transform="translate(-105.715 -131.646)" fill="#211f20"/>
        <path id="Path_309" data-name="Path 309" d="M688.551,183.823l3.72-.485c1.069-.138,2.141-.256,3.207-.415,6.8-1.015,8.605-4.056,6.306-10.605-1.915-5.455-1.958-5.677-1.53-8.564a15.379,15.379,0,0,1,1.646,1.525c2.137,2.692,4.273,5.386,6.328,8.139,1.288,1.724,2.686,3.465,1.925,5.752l4.658,1.539-.108.625c-.325.2-.646.408-.976.6-2.931,1.7-2.963,1.889-2.651,5.146a30.152,30.152,0,0,1-4.11,18.423c-.359.617-1.137.99-1.72,1.476a6.325,6.325,0,0,1-.845-2.068c-.051-3.1.153-6.2.061-9.3a53.314,53.314,0,0,0-.719-7.214,3.526,3.526,0,0,0-3.821-3.178c-2.559.031-5.12.2-7.676.139a25,25,0,0,1-3.812-.658l.118-.88" transform="translate(-409.817 -97.481)" fill="#211f20"/>
        <path id="Path_310" data-name="Path 310" d="M470.1,239.195c3.05-.755,6.13-1.408,9.144-2.287,6.479-1.89,8.5-5.082,7.177-11.77-.8-4.014-2.132-7.918-3.119-11.9a21.736,21.736,0,0,1-.6-5.6c4.586,2.566,6.276,7.128,8.4,11.385a28.371,28.371,0,0,1,2.79,13.86,14.515,14.515,0,0,1,3.408.684,3.666,3.666,0,0,1,1.523,1.912c.081.2-.895,1.085-1.5,1.25-1.636.448-2.343,1.438-3.146,2.948-.873,1.642-2.713,2.859-4.321,3.992a21.974,21.974,0,0,1-3.992,1.794l-.5-.378c.477-1.028.94-2.064,1.434-3.084,1-2.066.711-2.691-1.635-2.568-3.423.179-6.826.729-10.248.921a31.315,31.315,0,0,1-4.854-.453l.035-.707" transform="translate(-279.826 -123.605)" fill="#211f20"/>
        <path id="Path_311" data-name="Path 311" d="M448.021,221.033c-6.415,4.1-22.244,5.608-29.244,2.546a16.358,16.358,0,0,1,2.255-.969c2.35-.577,4.767-.928,7.063-1.666a11.374,11.374,0,0,0,3.977-2.262,4.707,4.707,0,0,0,.731-6.673c-2.379-2.984-5.033-5.758-7.679-8.516-1.389-1.447-3.013-2.668-5.071-4.462,1.218-.236,2.05-.681,2.627-.46a45.348,45.348,0,0,1,7.15,3.181,51.589,51.589,0,0,1,6.6,4.971c2.807,2.367,5.328,4.969,5.673,8.947.147,1.692,1.183,2.444,2.867,2.419,1.994-.03,2.885,1.094,3.049,2.943" transform="translate(-249.293 -118.173)" fill="#211f20"/>
        <path id="Path_312" data-name="Path 312" d="M90.626,373.3c1.254-1.032,2.2-1.832,3.173-2.608a63.659,63.659,0,0,0,5.615-4.591,3.65,3.65,0,0,0,.824-3.182,3.857,3.857,0,0,0-2.833-1.644c-5.362-.53-10.745-.846-16.121-1.244-.521-.038-1.038-.129-1.558-.2q-.029-.262-.058-.523c.75-.111,1.5-.23,2.251-.331,4.853-.654,9.709-1.291,14.559-1.973a10,10,0,0,0,1.823-.622v-.752l-15.572-1.269c11.088-.75,22.284-2.628,32.774,3.312-1.424.736-2.9,1.43-4.29,2.258a2.992,2.992,0,0,0-.888,1.325c-.548,1.171-.735,2.7-1.6,3.5-4.8,4.463-10.8,6.712-16.883,8.771-.2.068-.476-.083-1.215-.234" transform="translate(-47.426 -210.424)" fill="#211f20"/>
      </g>
    </g>
  </g>
</svg>
